<?xml version="1.0" standalone="no"?>
<!DOCTYPE svg PUBLIC "-//W3C//DTD SVG 20010904//EN"
 "http://www.w3.org/TR/2001/REC-SVG-20010904/DTD/svg10.dtd">
<svg version="1.0" xmlns="http://www.w3.org/2000/svg"
 width="1842.000000pt" height="1842.000000pt" viewBox="0 0 1842.000000 1842.000000"
 preserveAspectRatio="xMidYMid meet">
<metadata>
Created by Bryan Yehuda, 13 Jan 2022
</metadata>
<g transform="translate(0.000000,1842.000000) scale(0.100000,-0.100000)"
fill="#000000" stroke="none">
<path d="M14755 12349 c-133 -50 -211 -192 -184 -334 4 -22 11 -67 14 -100 4
-33 9 -62 10 -65 2 -3 6 -30 10 -60 3 -30 8 -62 10 -70 2 -8 7 -35 10 -60 3
-25 10 -70 15 -100 5 -30 12 -73 15 -95 2 -22 6 -49 9 -60 2 -11 7 -42 10 -68
4 -27 9 -59 12 -70 2 -12 6 -40 9 -62 6 -48 15 -96 20 -105 2 -3 0 -11 -4 -18
-5 -8 -24 -6 -71 9 -89 28 -693 210 -705 213 -5 1 -44 13 -85 26 -41 13 -79
24 -85 26 -5 1 -41 11 -80 24 -281 88 -405 121 -453 121 -78 1 -149 -28 -202
-81 -71 -70 -72 -73 -135 -400 -8 -41 -17 -90 -20 -107 -3 -18 -14 -79 -26
-135 -11 -57 -22 -118 -25 -137 -12 -71 -21 -75 -19 -6 7 162 22 682 25 840 2
122 -11 173 -57 234 -36 47 -59 66 -111 91 -72 34 -130 35 -282 5 -139 -28
-180 -35 -210 -40 -33 -5 -187 -34 -484 -91 -72 -14 -146 -27 -165 -30 -20 -3
-43 -7 -52 -10 -15 -4 -157 -31 -204 -38 -20 -3 -116 -21 -165 -31 -23 -5
-532 -101 -590 -111 -14 -3 -95 -18 -180 -34 -85 -16 -168 -32 -185 -34 -16
-3 -55 -10 -85 -16 -30 -6 -66 -13 -80 -16 -14 -2 -36 -7 -50 -9 -44 -9 -67
-13 -101 -19 -19 -3 -65 -12 -104 -20 -38 -8 -87 -17 -107 -20 -21 -3 -57 -10
-80 -15 -24 -5 -63 -13 -87 -16 -175 -25 -289 -153 -279 -312 2 -35 3 -63 1
-63 -1 0 -202 72 -445 161 -244 88 -474 172 -513 185 -38 14 -77 28 -85 31 -8
4 -17 7 -20 8 -3 1 -12 4 -20 8 -8 3 -73 26 -145 52 -71 25 -146 52 -165 60
-19 8 -93 35 -165 60 -71 26 -173 63 -225 82 -112 42 -201 50 -264 26 -92 -36
-164 -112 -187 -197 -12 -46 -15 -115 -34 -921 -12 -515 -16 -629 -19 -632 -3
-3 -46 163 -61 237 -3 14 -9 34 -12 45 -4 11 -8 25 -9 30 -3 15 -198 782 -240
940 -20 77 -38 149 -40 160 -2 11 -35 140 -73 287 -75 291 -95 339 -164 389
-114 83 -167 82 -477 -6 -129 -36 -260 -73 -290 -81 -182 -50 -671 -185 -895
-248 -273 -77 -251 -75 -254 -24 -3 55 -39 134 -82 176 -62 63 -116 82 -274
97 -33 3 -71 8 -85 10 -14 3 -55 7 -92 10 -37 3 -75 7 -85 9 -10 2 -52 7 -93
11 -41 4 -82 9 -91 10 -8 2 -48 6 -88 10 -40 3 -81 8 -90 10 -10 2 -54 6 -97
10 -43 4 -88 9 -99 11 -11 2 -51 7 -89 10 -38 3 -77 7 -87 9 -10 2 -49 7 -86
10 -37 4 -79 8 -93 11 -14 2 -52 6 -85 9 -57 5 -98 10 -175 20 -19 2 -62 7
-95 10 -33 3 -76 7 -95 10 -19 2 -60 7 -90 10 -30 3 -71 8 -90 10 -40 5 -112
13 -185 20 -27 3 -66 7 -85 10 -19 2 -57 7 -85 10 -112 12 -142 15 -190 22
-27 4 -97 7 -155 7 -90 1 -111 -2 -145 -21 -91 -50 -148 -130 -169 -239 -2
-10 -14 -57 -26 -104 -12 -47 -24 -92 -26 -100 -2 -8 -22 -85 -44 -170 -23
-85 -43 -162 -45 -170 -7 -33 -50 -199 -116 -453 -39 -148 -72 -276 -74 -285
-1 -9 -10 -42 -19 -73 -9 -31 -18 -65 -20 -75 -2 -11 -39 -152 -81 -314 -42
-162 -97 -374 -121 -470 -25 -96 -54 -209 -65 -250 -11 -41 -22 -82 -24 -90
-2 -8 -24 -94 -49 -190 -25 -96 -61 -238 -81 -315 -20 -77 -54 -209 -76 -293
-22 -85 -42 -161 -44 -170 -2 -10 -34 -132 -70 -272 -37 -140 -69 -262 -70
-270 -2 -8 -20 -78 -40 -155 -21 -77 -39 -147 -41 -155 -2 -8 -8 -33 -14 -55
-6 -22 -12 -47 -14 -56 -3 -9 -9 -34 -15 -55 -21 -75 -14 -155 20 -222 48 -97
120 -145 259 -172 30 -6 66 -13 80 -16 14 -2 48 -9 75 -14 28 -6 70 -14 95
-20 48 -10 68 -14 145 -30 28 -6 59 -12 70 -14 102 -21 435 -89 455 -92 14 -3
54 -12 90 -20 36 -8 77 -17 92 -19 15 -2 35 -6 45 -9 10 -3 29 -7 43 -10 14
-2 149 -29 301 -60 152 -31 285 -58 295 -60 10 -2 109 -23 219 -45 177 -37
234 -49 270 -57 6 -1 26 -5 45 -8 19 -4 43 -9 53 -12 11 -3 29 -7 40 -9 12 -2
69 -13 127 -25 58 -11 119 -23 135 -26 17 -3 46 -9 65 -14 118 -30 193 -29
264 3 83 39 157 130 170 212 4 28 50 280 61 335 12 62 15 77 19 110 3 19 8 46
11 60 3 14 21 113 40 220 20 107 38 196 39 198 3 2 70 -261 81 -319 2 -9 8
-33 14 -55 6 -21 36 -142 67 -269 60 -251 77 -294 130 -348 79 -79 175 -99
314 -66 47 11 93 22 103 24 10 2 26 6 35 9 9 3 28 7 42 10 14 3 241 60 505
127 264 66 488 123 498 125 9 2 25 6 35 8 9 2 132 34 272 70 140 35 266 67
280 70 14 3 106 26 205 51 99 26 191 48 205 51 14 3 34 8 45 11 11 4 25 8 30
9 10 2 525 132 555 140 8 2 43 11 78 19 l63 16 42 -33 c23 -18 186 -148 363
-288 176 -140 338 -268 359 -285 21 -16 52 -41 69 -55 17 -14 38 -30 46 -37 8
-6 51 -40 95 -75 44 -35 134 -107 200 -159 164 -131 230 -154 346 -124 61 15
114 47 152 90 39 44 31 25 262 690 46 132 89 254 95 270 7 17 16 44 20 60 4
17 22 68 39 115 18 47 34 92 36 100 2 8 33 98 68 200 36 102 76 215 88 252
l23 67 93 -1 c100 0 96 2 107 -63 3 -16 16 -93 30 -170 34 -194 35 -197 56
-320 11 -60 22 -128 25 -150 4 -22 13 -71 21 -110 7 -38 16 -86 18 -105 3 -20
7 -47 10 -60 4 -14 8 -38 10 -55 4 -29 22 -129 30 -171 6 -29 16 -93 21 -129
14 -102 73 -190 160 -237 l60 -32 170 0 c94 1 350 4 570 8 483 9 666 12 1158
21 208 3 387 8 399 10 89 18 164 70 206 145 l26 47 80 -24 c96 -28 800 -232
1331 -385 420 -121 450 -126 546 -79 90 43 132 102 189 267 16 49 34 98 39
109 5 11 32 85 61 165 28 80 56 156 62 170 5 14 26 70 45 125 19 55 40 114 47
130 7 17 51 134 97 262 46 127 85 230 86 229 1 -1 5 -20 8 -42 3 -21 12 -79
20 -129 8 -49 17 -108 21 -130 3 -22 7 -51 9 -65 10 -65 24 -159 30 -195 3
-23 7 -50 9 -60 2 -11 6 -42 10 -70 18 -135 42 -191 110 -255 78 -74 179 -88
376 -55 14 2 52 7 85 10 33 3 71 8 85 10 14 2 48 6 75 10 28 3 64 8 80 10 17
2 50 6 75 9 25 3 119 15 210 26 91 11 185 23 210 26 25 3 56 7 69 9 14 3 52 7
85 10 34 4 72 8 86 10 29 4 92 13 153 20 23 3 58 7 77 10 19 3 54 7 78 10 23
3 59 7 80 10 145 18 286 35 337 41 33 3 67 8 76 9 9 2 40 6 70 10 94 11 179
21 249 30 19 3 67 9 105 14 123 15 209 72 258 171 21 44 22 54 21 365 0 337
-7 964 -29 2880 -9 757 -8 741 -34 795 -24 53 -81 114 -125 137 -16 8 -97 40
-180 70 -83 31 -185 68 -226 83 -41 15 -158 58 -260 95 -102 36 -275 100 -385
140 -110 40 -312 114 -450 165 -137 50 -257 93 -265 95 -8 2 -87 31 -175 64
-147 55 -596 219 -810 296 -49 18 -191 70 -315 115 -255 94 -314 104 -405 69z"/>
</g>
</svg>
